<?xml version="1.0" encoding="utf-8"?>
<!-- Generator: Adobe Illustrator 25.1.0, SVG Export Plug-In . SVG Version: 6.00 Build 0)  -->
<svg version="1.1" id="Calque_1" xmlns="http://www.w3.org/2000/svg" xmlns:xlink="http://www.w3.org/1999/xlink" x="0px" y="0px"
	 viewBox="0 0 96 96" style="enable-background:new 0 0 96 96;" xml:space="preserve">
<style type="text/css">
	.st0{fill:#0ACF83;}
	.st1{fill:#A259FF;}
	.st2{fill:#F24E1E;}
	.st3{fill:#FF7262;}
	.st4{fill:#1ABCFE;}
</style>
<g>
	<path id="path0_fill" class="st0" d="M34.7,90c7.6,0,13.8-6.2,13.8-13.8V62.3H34.7c-7.6,0-13.8,6.2-13.8,13.8S27,90,34.7,90z"/>
	<path id="path1_fill" class="st1" d="M20.9,48.5c0-7.6,6.2-13.8,13.8-13.8h13.8v27.6H34.7C27,62.3,20.9,56.1,20.9,48.5z"/>
	<path id="path1_fill_1_" class="st2" d="M20.9,20.9C20.9,13.2,27,7,34.7,7h13.8v27.6H34.7C27,34.7,20.9,28.5,20.9,20.9z"/>
	<path id="path2_fill" class="st3" d="M48.5,7h13.8c7.6,0,13.8,6.2,13.8,13.8S70,34.7,62.3,34.7H48.5V7z"/>
	<path id="path3_fill" class="st4" d="M76.1,48.5c0,7.6-6.2,13.8-13.8,13.8s-13.8-6.2-13.8-13.8s6.2-13.8,13.8-13.8
		S76.1,40.9,76.1,48.5z"/>
</g>
</svg>
